# AST/ASF file generated using VICON BodyLanguage
# -----------------------------------------------
:version 1.10
:name VICON
:units
  mass 1.0
  length 0.45
  angle deg
:documentation
   .ast/.asf automatically generated from VICON data using
   VICON BodyBuilder and BodyLanguage model FoxedUp or BRILLIANT.MOD
:root
   order TX TY TZ RX RY RZ
   axis XYZ
   position 0 0 0  
   orientation 0 0 0 
:bonedata
  begin
     id 1 
     name lhipjoint
     direction 0.700308 -0.549349 0.455834 
     length 2.59063 
     axis 0 0 0  XYZ
  end
  begin
     id 2 
     name lfemur
     direction 0.34202 -0.939693 0  
     length 6.31066  
     axis 0 0 20  XYZ
    dof rx ry rz
    limits (-160.0 20.0)
           (-70.0 70.0)
           (-60.0 70.0)
  end
  begin
     id 3 
     name ltibia
     direction 0.34202 -0.939693 0   
     length 7.36093   
     axis 0 0 20   XYZ
    dof rx
    limits (-10.0 170.0)
  end
  begin
     id 4 
     name lfoot
     direction 0.0905332 -0.248738 0.96433   
     length 2.0233   
     axis -90 7.62852e-016 20   XYZ
    dof rx rz
    limits (-45.0 90.0)
           (-70.0 20.0)
  end
  begin
     id 5 
     name ltoes
     direction 1.53573e-011 -4.21855e-011 1   
     length 1.01524   
     axis -90 7.62852e-016 20   XYZ
    dof rx
    limits (-90.0 20.0)
  end
  begin
     id 6 
     name rhipjoint
     direction -0.61416 -0.607328 0.503944   
     length 2.34332  
     axis 0 0 0  XYZ 
  end
  begin
     id 7 
     name rfemur
     direction -0.34202 -0.939693 0   
     length 6.58548   
     axis 0 0 -20   XYZ
    dof rx ry rz
    limits (-160.0 20.0)
           (-70.0 70.0)
           (-70.0 60.0)
  end
  begin
     id 8 
     name rtibia
     direction -0.34202 -0.939693 0   
     length 7.20707   
     axis 0 0 -20   XYZ
    dof rx
    limits (-10.0 170.0)
 end
 begin
     id 9 
     name rfoot
     direction -0.136772 -0.375778 0.916561   
     length 1.92184  
     axis -90 -7.62852e-016 -20   XYZ
    dof rx rz
    limits (-45.0 90.0)
           (-20.0 70.0)
  end
  begin
     id 10 
     name rtoes
     direction -1.53535e-011 -4.21828e-011 1   
     length 0.951089   
     axis -90 -7.62852e-016 -20   XYZ
    dof rx
    limits (-90.0 20.0)
  end
  begin
     id 11 
     name lowerback
     direction -0.0444974 0.988086 -0.147332   
     length 1.9609   
     axis 0 0 0   XYZ
    dof rx ry rz
    limits (-20.0 45.0)
           (-30.0 30.0)
           (-30.0 30.0)
  end
  begin
     id 12 
     name upperback
     direction 0.00613146 0.999513 0.0306081   
     length 1.94944   
     axis 0 0 0   XYZ
    dof rx ry rz
    limits (-20.0 45.0)
           (-30.0 30.0)
           (-30.0 30.0)
  end
  begin
     id 13 
     name thorax
     direction 0.0254621 0.994518 0.101418   
     length 2.0119   
     axis 0 0 0   XYZ
    dof rx ry rz
    limits (-20.0 45.0)
           (-30.0 30.0)
           (-30.0 30.0)
  end
  begin
     id 14 
     name lowerneck
     direction 0.0168698 0.977854 0.208608   
     length 1.6375   
     axis 0 0 0   XYZ
    dof rx ry rz
    limits (-20.0 45.0)
           (-30.0 30.0)
           (-30.0 30.0)
  end
  begin
     id 15 
     name upperneck
     direction -0.0283988 0.989338 -0.142843   
     length 1.6851   
     axis 0 0 0   XYZ
    dof rx ry rz
    limits (-20.0 45.0)
           (-30.0 30.0)
           (-30.0 30.0)
  end
  begin
     id 16
     name head
     direction -0.0129422 0.99741 -0.0707489  
     length 1.69029  
     axis 0 0 0   XYZ
    dof rx ry rz
    limits (-20.0 45.0)
           (-30.0 30.0)
           (-30.0 30.0)
  end
  begin
     id 17 
     name lclavicle
     direction 0.820295 0.564628 -0.0911715  
     length 3.16484  
     axis 0 0 0   XYZ
    dof ry rz
    limits (-20.0 10.0)
           (0.0 20.0)
  end
  begin
     id 18 
     name lhumerus
     direction 1 -4.48969e-011 1.00186e-027   
     length 5.17853   
     axis 180 -30 -90   XYZ
    dof rx ry rz
    limits (-60.0 90.0)
           (-90.0 90.0)
           (-90.0 90.0)
  end
  begin
     id 19
     name lradius
     direction 1 -4.48966e-011 -1.52922e-027   
     length 3.40399   
     axis 180 -30 -90   XYZ
    dof rx
    limits (-10.0 170.0)
  end
  begin
     id 20
     name lwrist
     direction 1 -4.48981e-011 -3.80893e-027   
     length 1.70199   
     axis 1.1049e-015 90 90   XYZ
    dof ry
    limits (-180.0 0.0)
 end
  begin
     id 21 
     name lhand
     direction 1 -4.48957e-011 -7.61786e-027   
     length 0.708964   
     axis 4.86085e-015 90 90   XYZ
    dof rx rz
    limits (-90.0 90.0)
           (-45.0 45.0)
  end
  begin
     id 22 
     name lfingers
     direction 1 -4.48929e-011 -1.52357e-026   
     length 0.571585   
     axis 9.7217e-015 90 90   XYZ
    dof rx
    limits (0.0 90.0)
  end
  begin
     id 23
     name lthumb
     direction 0.707107 -6.34905e-011 0.707107   
     length 0.820685   
     axis -90 45 2.85299e-015   XYZ
    dof rx rz
    limits (-45.0 45.0)
           (-45.0 45.0)
  end
  begin
     id 24 
     name rclavicle
     direction -0.858602 0.463947 -0.218075   
     length 3.35137  
     axis 0 0 0   XYZ 
    dof ry rz
    limits (-10.0 20.0)
           (-20.0 0.0)
  end
  begin
     id 25 
     name rhumerus
     direction -1 -4.48969e-011 -1.98511e-027  
     length 5.42351   
     axis 180 30 90   XYZ
    dof rx ry rz
    limits (-90.0 60.0)
           (-90.0 90.0)
           (-90.0 90.0)
  end
  begin
     id 26 
     name rradius
     direction -1 -4.48961e-011 -2.82624e-027   
     length 3.42066   
     axis 180 30 90   XYZ
    dof rx
    limits (-10.0 170.0)
  end
  begin
     id 27 
     name rwrist
     direction -1 -4.48966e-011 -3.80893e-027   
     length 1.71033   
     axis 1.1049e-015 -90 -90   XYZ
    dof ry
    limits (-180.0 0.0)
  end
  begin
     id 28
     name rhand
     direction -1 -4.48964e-011 -7.61786e-027   
     length 0.743608   
     axis 4.86085e-015 -90 -90   XYZ
    dof rx rz
    limits (-90.0 90.0)
           (-45.0 45.0)
  end
  begin
     id 29
     name rfingers
     direction -1 -4.48961e-011 -1.52357e-026   
     length 0.599516   
     axis 9.7217e-015 -90 -90   XYZ
    dof rx
    limits (0.0 90.0)
  end
  begin
     id 30
     name rthumb
     direction -0.707107 -6.34913e-011 0.707107   
     length 0.860789   
     axis -90 -45 -2.85299e-015   XYZ
    dof rx rz
    limits (-45.0 45.0)
           (-45.0 45.0)
  end
:hierarchy
  begin
    root lhipjoint rhipjoint lowerback
    lhipjoint lfemur
    lfemur ltibia
    ltibia lfoot
    lfoot ltoes
    rhipjoint rfemur
    rfemur rtibia
    rtibia rfoot
    rfoot rtoes
    lowerback upperback
    upperback thorax
    thorax lowerneck lclavicle rclavicle
    lowerneck upperneck
    upperneck head
    lclavicle lhumerus
    lhumerus lradius
    lradius lwrist
    lwrist lhand lthumb
    lhand lfingers
    rclavicle rhumerus
    rhumerus rradius
    rradius rwrist
    rwrist rhand rthumb
    rhand rfingers
  end

#!OML:ASF E:\mmandel\Project 1\Capture day 1\Session 2\Subject.ASF
:FULLY-SPECIFIED
:DEGREES
205
root 23.6273 2.45925 -0.881359 42.3589 81.3877 -51.2018
lowerback -6.747 1.90781 -4.77223
upperback -5.80396 2.95875 0.0502185
thorax -2.47587 1.73941 2.8445
lowerneck -12.6727 3.18014 3.51156
upperneck -8.35025 4.03575 -6.24673
head -0.295226 2.10658 -2.44823
rclavicle 3.47873e-015 5.49143e-015
rhumerus -68.0724 -11.6986 -61.9824
rradius 107.038
rwrist -360.366
rhand -40.2758 82.9353
rfingers 7.12502
rthumb -13.2336 53.3754
lclavicle 3.47873e-015 5.49143e-015
lhumerus -64.9366 6.09659 69.362
lradius 116.083
lwrist 7.90616
lhand -40.6281 -88.7684
lfingers 7.12502
lthumb -13.5732 -59.2308
rfemur -28.3365 -45.531 17.1306
rtibia 59.3441
rfoot -8.39615 -4.39611
rtoes -22.3385
lfemur -4.86625 9.58512 -12.9081
ltibia 26.0155
lfoot -16.5405 -4.49312
ltoes 6.75724
206
root 23.6297 2.45966 -0.872924 42.1507 81.4873 -51.4629
lowerback -6.87318 1.93706 -4.68259
upperback -5.85522 3.00422 0.0653613
thorax -2.45889 1.76254 2.81593
lowerneck -12.3182 2.98929 3.52886
upperneck -8.90443 3.7737 -6.31377
head -0.54358 1.9914 -2.49705
rclavicle -2.13694e-014 2.75317e-014
rhumerus -68.0586 -11.5751 -62.1747
rradius 107.896
rwrist -359.916
rhand -40.2673 82.9884
rfingers 7.12502
rthumb -13.2254 53.4279
lclavicle -2.13694e-014 2.75317e-014
lhumerus -64.6882 5.68414 69.8875
lradius 116.791
lwrist 6.94528
lhand -40.6008 -88.7358
lfingers 7.12502
lthumb -13.5469 -59.1965
rfemur -28.3762 -45.5081 17.2574
rtibia 59.1471
rfoot -8.35776 -4.49332
rtoes -22.0651
lfemur -4.96453 9.60668 -12.8407
ltibia 26.0449
lfoot -16.6249 -4.32242
ltoes 6.8255
207
root 23.6342 2.45953 -0.862786 42.0497 81.6147 -51.5366
lowerback -6.90388 1.89573 -4.60873
upperback -5.85476 2.94689 0.0801204
thorax -2.43295 1.73078 2.78934
lowerneck -12.3737 2.93487 3.44612
upperneck -8.93922 3.71755 -6.09208
head -0.555821 1.96609 -2.40979
rclavicle 8.34896e-015 4.14963e-015
rhumerus -67.7929 -11.4434 -62.5958
rradius 108.58
rwrist -359.458
rhand -40.2001 82.8661
rfingers 7.12502
rthumb -13.1606 53.3014
lclavicle 8.34896e-015 4.14963e-015
lhumerus -64.4522 5.39208 70.2135
lradius 117.319
lwrist 5.91581
lhand -40.5535 -88.6707
lfingers 7.12502
lthumb -13.5013 -59.1283
rfemur -28.267 -45.4899 17.2769
rtibia 58.9271
rfoot -8.33855 -4.61378
rtoes -21.7856
lfemur -4.99303 9.5268 -12.7797
ltibia 26.0751
lfoot -16.7857 -3.86247
ltoes 4.94747
208
root 23.6345 2.46038 -0.854475 42.6927 81.7821 -50.7556
lowerback -6.80916 1.82662 -4.62975
upperback -5.86013 2.84873 0.0928305
thorax -2.48476 1.6827 2.80627
lowerneck -12.3656 2.9025 3.36429
upperneck -8.85165 3.68836 -5.92509
head -0.535931 1.95066 -2.33935
rclavicle -1.0625e-013 -5.65542e-014
rhumerus -67.5232 -11.3112 -62.9303
rradius 109.169
rwrist -358.953
rhand -40.0715 82.7853
rfingers 7.12502
rthumb -13.0367 53.2127
lclavicle -1.0625e-013 -5.65542e-014
lhumerus -64.3702 5.0931 70.457
lradius 117.857
lwrist 5.03358
lhand -40.4416 -88.0158
lfingers 7.12502
lthumb -13.3934 -58.4663
rfemur -27.8973 -45.4675 17.0217
rtibia 58.698
rfoot -8.50186 -4.67602
rtoes -21.0451
lfemur -4.9195 9.40001 -12.775
ltibia 26.0937
lfoot -16.8797 -3.52187
ltoes 3.82947
209
root 23.6329 2.46131 -0.846733 43.047 81.9389 -50.2521
lowerback -6.69312 1.72694 -4.64976
upperback -5.85689 2.70736 0.114199
thorax -2.53606 1.61222 2.82973
lowerneck -12.2364 2.96241 3.70568
upperneck -8.95036 3.71918 -6.17846
head -0.574365 1.95879 -2.48784
rclavicle 1.28216e-014 -2.5432e-014
rhumerus -67.2292 -11.0514 -63.3682
rradius 109.707
rwrist -358.273
rhand -40.0801 82.7288
rfingers 7.12502
rthumb -13.045 53.1567
lclavicle 1.28216e-014 -2.5432e-014
lhumerus -64.2508 4.94981 70.5205
lradius 118.355
lwrist 4.58691
lhand -39.896 -86.5435
lfingers 7.12502
lthumb -12.8675 -56.9602
rfemur -27.4759 -45.3859 16.7782
rtibia 58.4572
rfoot -8.72453 -4.77778
rtoes -21.0371
lfemur -4.78767 9.3358 -12.713
ltibia 26.0896
lfoot -16.9479 -3.42001
ltoes 4.02328
